# xmcd CD database file
#
# Track frame offsets:
#	150
#	15780
#	37856
#	50398
#	65491
#	79338
#	92523
#	114464
#	136015
#	150707
#	175265
#	192948
#	207138
#	218142
#	230561
#	245572
#	259112
#	275371
#	288425
#
# Disc length: 4045 seconds
#
# Revision: 0
# Processed by: cddbd v1.5.2PL0 Copyright (c) Steve Scherf et al.
# Submitted via: CDex 1.70beta2
#
DISCID=fe0fcb13
DTITLE=Louis Armstrong - Great Artists
DYEAR=1900
DGENRE=Jazz
TTITLE0=Mack The Knife
TTITLE1=St. James Infirmary
TTITLE2=When The Saints Go Mrching In
TTITLE3=Basin Street Blues
TTITLE4=Some Of These Days
TTITLE5=When You're Smiling
TTITLE6=Tea for Two
TTITLE7=Jeepers Creepers
TTITLE8=Just A Gigolo
TTITLE9=On The Sunny side Of The Street
TTITLE10=La Vie En Rose
TTITLE11=C'est Si Bon
TTITLE12=Mame
TTITLE13=St. Louiis Blues
TTITLE14=Body And Soul
TTITLE15=Takes Two To Tango
TTITLE16=Stardust
TTITLE17=Lover
TTITLE18=Dinah
EXTD=
EXTT0=
EXTT1=
EXTT2=
EXTT3=
EXTT4=
EXTT5=
EXTT6=
EXTT7=
EXTT8=
EXTT9=
EXTT10=
EXTT11=
EXTT12=
EXTT13=
EXTT14=
EXTT15=
EXTT16=
EXTT17=
EXTT18=
PLAYORDER=
